<svg width="40" height="40" viewBox="0 0 100 100" fill="none" xmlns="http://www.w3.org/2000/svg">
  <g>
    <circle cx="50" cy="50" r="45" fill="none" stroke="#7B68EE" stroke-width="2.5"/>

    <g>
      <circle cx="50" cy="50" r="5" fill="#7B68EE"/>

      <circle cx="30" cy="35" r="4" fill="#7B68EE"/>
      <circle cx="70" cy="65" r="4" fill="#7B68EE"/>
      <circle cx="50" cy="20" r="4" fill="#7B68EE"/>
      <circle cx="50" cy="80" r="4" fill="#7B68EE"/>
      <circle cx="80" cy="50" r="4" fill="#7B68EE"/>
      <circle cx="20" cy="50" r="4" fill="#7B68EE"/>
      <circle cx="68" cy="32" r="3" fill="#9370DB"/> <circle cx="32" cy="68" r="3" fill="#6495ED"/> </g>

    <g stroke="#C3BDE0" stroke-width="1.5"> <line x1="50" y1="50" x2="30" y2="35"/>
      <line x1="50" y1="50" x2="70" y2="65"/>
      <line x1="50" y1="50" x2="50" y2="20"/>
      <line x1="50" y1="50" x2="50" y2="80"/>
      <line x1="50" y1="50" x2="80" y2="50"/>
      <line x1="50" y1="50" x2="20" y2="50"/>
      <line x1="50" y1="50" x2="68" y2="32"/>
      <line x1="50" y1="50" x2="32" y2="68"/>

      <line x1="30" y1="35" x2="50" y2="20"/>
      <line x1="30" y1="35" x2="20" y2="50"/>
      <line x1="70" y1="65" x2="50" y2="80"/>
      <line x1="70" y1="65" x2="80" y2="50"/>
      <line x1="50" y1="20" x2="68" y2="32"/>
      <line x1="50" y1="80" x2="32" y2="68"/>
      <line x1="80" y1="50" x2="68" y2="32"/>
      <line x1="20" y1="50" x2="32" y2="68"/>
    </g>
  </g>
</svg>
